
      <svg data-logo="logo" xmlns="http://www.w3.org/2000/svg" viewBox="0 0 214 43">
        <g id="logogram" transform="translate(0, 1) rotate(0)"><path d="M0.452637 20.81C0.452637 9.76427 9.40694 0.809967 20.4526 0.809967H46.7026C57.7484 0.809967 66.7026 9.76427 66.7026 20.81V40.81H20.4526C9.40694 40.81 0.452637 31.8557 0.452637 20.81Z" fill="#C64234"/><path d="M46.7026 8.30997H20.4526C13.5491 8.30997 7.95264 13.9064 7.95264 20.81C7.95264 27.7135 13.5491 33.31 20.4526 33.31H46.7026C53.6062 33.31 59.2026 27.7135 59.2026 20.81C59.2026 13.9064 53.6062 8.30997 46.7026 8.30997Z" fill="#FED490"/><path d="M20.4526 27.06C23.9044 27.06 26.7026 24.2617 26.7026 20.81C26.7026 17.3582 23.9044 14.56 20.4526 14.56C17.0009 14.56 14.2026 17.3582 14.2026 20.81C14.2026 24.2617 17.0009 27.06 20.4526 27.06Z" fill="black"/><path d="M17.9526 19.56C18.643 19.56 19.2026 19.0003 19.2026 18.31C19.2026 17.6196 18.643 17.06 17.9526 17.06C17.2623 17.06 16.7026 17.6196 16.7026 18.31C16.7026 19.0003 17.2623 19.56 17.9526 19.56Z" fill="white"/><path d="M47.9526 27.06C51.4044 27.06 54.2026 24.2617 54.2026 20.81C54.2026 17.3582 51.4044 14.56 47.9526 14.56C44.5009 14.56 41.7026 17.3582 41.7026 20.81C41.7026 24.2617 44.5009 27.06 47.9526 27.06Z" fill="black"/><path d="M45.4526 19.56C46.143 19.56 46.7026 19.0003 46.7026 18.31C46.7026 17.6196 46.143 17.06 45.4526 17.06C44.7623 17.06 44.2026 17.6196 44.2026 18.31C44.2026 19.0003 44.7623 19.56 45.4526 19.56Z" fill="white"/></g>
        <g id="logotype" transform="translate(73, 9)"><path fill="" d="M11.04 25L6.28 25L15.21 0.50L20.35 0.50L29.31 25L24.52 25L16.85 3.02L18.71 3.02L11.04 25ZM25.18 19.36L10.41 19.36L11.64 15.79L23.96 15.79L25.18 19.36ZM35.96 25L31.41 25L31.41 0.50L35.96 0.50L35.96 25ZM47.62 25.42L47.62 25.42Q44.95 25.42 42.91 24.25Q40.86 23.07 39.69 21.03Q38.52 18.98 38.52 16.32L38.52 16.32Q38.52 13.66 39.69 11.61Q40.86 9.56 42.91 8.39Q44.95 7.22 47.62 7.22L47.62 7.22Q50.94 7.22 53.22 8.95Q55.49 10.68 56.12 13.73L56.12 13.73L51.33 13.73Q51.01 12.54 50.00 11.82Q48.98 11.10 47.58 11.10L47.58 11.10Q46.39 11.10 45.38 11.73Q44.36 12.36 43.77 13.52Q43.17 14.67 43.17 16.32L43.17 16.32Q43.17 17.93 43.77 19.12Q44.36 20.31 45.38 20.92Q46.39 21.54 47.58 21.54L47.58 21.54Q48.98 21.54 50.00 20.85Q51.01 20.17 51.33 18.91L51.33 18.91L56.12 18.91Q55.53 21.85 53.23 23.63Q50.94 25.42 47.62 25.42ZM62.95 25L58.40 25L58.40 7.64L62.95 7.64L62.95 10.30Q63.61 8.97 64.66 8.22Q65.71 7.46 67.08 7.46L67.08 7.46L69.28 7.46L69.28 11.52L66.62 11.52Q65.36 11.52 64.54 12.19Q63.72 12.85 63.33 14.18Q62.95 15.51 62.95 17.48L62.95 17.48L62.95 25ZM77.82 25.42L77.82 25.42Q74.85 25.42 73.11 23.37Q71.38 21.32 71.38 17.41L71.38 17.41L71.38 7.64L75.93 7.64L75.93 16.98Q75.93 19.23 76.79 20.40Q77.65 21.57 79.29 21.57L79.29 21.57Q81.15 21.57 82.16 20.26Q83.18 18.95 83.18 16.60L83.18 16.60L83.18 7.64L87.73 7.64L87.73 25L83.18 25L83.18 22.45Q82.41 23.81 81.08 24.61Q79.75 25.42 77.82 25.42ZM95.11 25L90.56 25L90.56 7.64L95.11 7.64L95.11 25ZM95.08 4.77L90.67 4.77L90.67 0.36L95.08 0.36L95.08 4.77ZM108.52 25L105.05 25Q103.30 25 102.09 24.60Q100.89 24.20 100.29 23.02Q99.70 21.85 99.70 19.64L99.70 19.64L99.70 11.45L96.72 11.45L96.72 7.64L99.70 7.64L99.70 2.98L104.25 2.98L104.25 7.64L108.62 7.64L108.62 11.45L104.25 11.45L104.25 19.09Q104.25 19.96 104.42 20.40Q104.60 20.84 105.09 20.98Q105.58 21.11 106.42 21.11L106.42 21.11L108.52 21.11L108.52 25ZM118.11 25.42L118.11 25.42Q115.45 25.42 113.42 24.28Q111.39 23.14 110.23 21.13Q109.08 19.12 109.08 16.46L109.08 16.46Q109.08 13.76 110.21 11.66Q111.35 9.56 113.38 8.39Q115.41 7.22 118.11 7.22L118.11 7.22Q120.70 7.22 122.66 8.34Q124.62 9.46 125.72 11.38Q126.82 13.31 126.82 15.76L126.82 15.76Q126.82 16.11 126.82 16.53Q126.82 16.95 126.75 17.41L126.75 17.41L112.37 17.41L112.37 14.60L122.24 14.60Q122.13 12.92 120.98 11.91Q119.82 10.89 118.14 10.89L118.14 10.89Q116.88 10.89 115.83 11.45Q114.78 12.01 114.17 13.12Q113.56 14.22 113.56 15.93L113.56 15.93L113.56 16.91Q113.56 18.38 114.15 19.47Q114.75 20.55 115.76 21.13Q116.78 21.71 118.07 21.71L118.07 21.71Q119.40 21.71 120.31 21.11Q121.22 20.52 121.71 19.54L121.71 19.54L126.33 19.54Q125.84 21.18 124.70 22.53Q123.57 23.88 121.89 24.65Q120.21 25.42 118.11 25.42ZM133.75 25L129.20 25L129.20 7.64L133.75 7.64L133.75 10.30Q134.42 8.97 135.47 8.22Q136.52 7.46 137.88 7.46L137.88 7.46L140.09 7.46L140.09 11.52L137.43 11.52Q136.17 11.52 135.34 12.19Q134.52 12.85 134.14 14.18Q133.75 15.51 133.75 17.48L133.75 17.48L133.75 25Z"/></g>
        
      </svg>
    